Shrek Forever After (2010) Alternatieve titels: Shrek Voor Eeuwig en Altijd, The Final Chapter, Shrek 4

Verenigde Staten
Animatie / Komedie
93 minuten

geregisseerd door Mike Mitchell
met de stemmen van Mike Myers, Cameron Diaz en Eddie Murphy

In plaats van het afschrikken van menig dorpsbewoner is Shrek (Mike Myers) inmiddels een echte familieman geworden. Shrek komt in contact met de gladde praatjesmaker Repelsteeltje. Hierdoor komt hij tot zijn schrik terecht in een alternatieve versie van zijn wereld, Far Far Away, waar er gejaagd wordt op Ogres en hij Fiona (Cameron Diaz) helemaal nooit ontmoet heeft. Aan hem de taak om zijn vertrouwde wereld weer terug te krijgen.

English:

Rumpelstiltskin tricks a mid-life crisis burdened Shrek into allowing himself to be erased from existence and cast in a dark alternate timeline where Rumpel rules supreme.
 
http://www.imdb.com/title/tt0892791/
 
http://moviemeter.nl/film/58677

Audio: Dutch / Nederlands.  No subs / Geen ondertitels.

Cover included / bijgevoegd.

General
Complete name                    : Shrek Voor Eeuwig en Altijd-AC3-XviD-DVDRip[Ned]2010 TBS\Shrek Voor Eeuwig en Altijd-AC3-XviD-DVDRip[Ned]2010 TBS.avi
Format                           : AVI
Format/Info                      : Audio Video Interleave
File size                        : 1.36 GiB
Duration                         : 1h 29mn
Overall bit rate                 : 2 181 Kbps
Writing application              : VirtualDubMod 1.5.4.1 (build 2178/release)
Writing library                  : VirtualDubMod build 2178/release

Video
ID                               : 0
Format                           : MPEG-4 Visual
Format profile                   : Simple@L3
Format settings, BVOP            : No
Format settings, QPel            : No
Format settings, GMC             : No warppoints
Format settings, Matrix          : Default (H.263)
Codec ID                         : XVID
Codec ID/Hint                    : XviD
Duration                         : 1h 29mn
Bit rate                         : 1 723 Kbps
Width                            : 720 pixels
Height                           : 304 pixels
Display aspect ratio             : 2.35:1
Frame rate                       : 25.000 fps
Resolution                       : 8 bits
Colorimetry                      : 4:2:0
Scan type                        : Progressive
Bits/(Pixel*Frame)               : 0.315
Stream size                      : 1.08 GiB (79%)
Writing library                  : XviD 1.1.2 (UTC 2006-11-01)

Audio
ID                               : 1
Format                           : AC-3
Format/Info                      : Audio Coding 3
Codec ID                         : 2000
Duration                         : 1h 29mn
Bit rate mode                    : Constant
Bit rate                         : 448 Kbps
Channel(s)                       : 6 channels
Channel positions                : Front: L C R, Surround: L R, LFE
Sampling rate                    : 48.0 KHz
Stream size                      : 286 MiB (21%)
Alignment                        : Split accross interleaves
Interleave, duration             : 40 ms (1.00 video frame)
Interleave, preload duration     : 500 ms

Blackbeard  TBS.